<?xml version="1.0" encoding="utf-8"?>
<!-- Generator: Adobe Illustrator 24.2.0, SVG Export Plug-In . SVG Version: 6.00 Build 0)  -->
<svg version="1.1" id="Layer_1" xmlns="http://www.w3.org/2000/svg" xmlns:xlink="http://www.w3.org/1999/xlink" x="0px" y="0px"
	 viewBox="0 0 170.04 202.21" style="enable-background:new 0 0 170.04 202.21;" xml:space="preserve">
<style type="text/css">
	.st0{fill:#3359A8;}
	.st1{fill:#3CA492;}
</style>
<g>
	<path class="st0" d="M45.98,5.92c13,16.57,34.78,22.18,49.53,36.68c-6.71-3.44-13.29-7.21-20.58-9.33
		c-7.8-2.12-14.3-7.14-20.53-12.08C49.71,17.42,46.5,11.96,45.98,5.92"/>
	<path class="st0" d="M101.27,9.11c9.24-3.86,20.45,4.53,18.98,14.53C119.81,34.08,106.19,40.2,98,33.79
		C88.91,27.96,90.91,12.38,101.27,9.11"/>
	<path class="st0" d="M34.91,11.21c15.34,13.43,36.28,16.74,54.05,25.79c9.41,4.82,18.56,12.02,21.91,22.43
		c3.4,10.34-0.06,21.19-3.65,30.98c5.46,3.23,11.54,5.98,18.06,4.97c-0.31-6.19-5.36-10.06-9.27-14.15
		c4.35,3.47,9.47,6.99,11.02,12.63c0.79,2.52-1.31,4.99-3.8,5.24c-5.67,0.46-10.86-2.48-15.55-5.28
		c-10.39-6.66-19.73-15.31-26.2-25.89c3.64,3.19,6.81,6.85,10.19,10.31c2.4-8.44,3.87-18.44-1.91-25.89
		c-6.88-8.75-17.37-13.52-26.84-18.87C52.21,28.36,38.06,24.37,34.91,11.21"/>
	<path class="st1" d="M118.13,41.12c14.56,3.87,26.72,14.54,34.2,27.4c9.97,17.17,11.14,39.05,3.25,57.23
		c-7.61,17.88-24.04,32.08-43.25,35.82c12.46-6.88,24.24-15.82,31.37-28.44c11.96-19.6,12.11-45.53,0.56-65.34
		C138.24,56.58,128.39,48.28,118.13,41.12"/>
	<path class="st1" d="M31.64,70.08c6.66-12.37,17.79-22.3,30.95-27.3c-5.25,5.24-11.32,9.69-15.83,15.65
		c-13.71,16.9-18.53,40.65-11.91,61.45c4.09,14.14,13.49,25.96,24.33,35.62c-12.67-5.68-23.1-15.98-28.98-28.56
		C21.61,109.2,22.23,87.38,31.64,70.08"/>
	<path class="st0" d="M65.06,66.4c4.64-2.14,9.45,0.88,13.69,2.66c-3.61-0.33-7.97-2.74-11.13-0.03c-1.57,2.97,0.07,6.5,1.29,9.3
		c3.81,7.24,9.53,13.32,15.67,18.65c2.28-5.12,4.29-10.36,6.13-15.67c4.54,4.63,9.32,9.04,14.67,12.73
		c-2,5.77-4.72,11.26-7.42,16.75c-12.63-8.25-25.16-17.77-33.06-30.89C62.72,75.94,60.57,69.54,65.06,66.4"/>
	<path class="st0" d="M106.58,99.28c-0.53,4.08-1.5,8.09-2.08,12.17c4.87,4.47,11.47,6.48,17.14,9.81
		c-7.66-2.03-14.91-5.39-21.65-9.5C102.38,107.69,104.54,103.52,106.58,99.28"/>
	<path class="st0" d="M82.1,102.01c4.91,3.58,10.3,6.48,15.02,10.31c-6.13,14.76-13.9,29.08-16.66,45c-2.72,12.97-1.85,26.29,0,39.3
		c-9.38-8.5-12.79-21.63-14.18-33.78C63.7,141.31,73.19,120.98,82.1,102.01"/>
	<path class="st0" d="M90.66,130.72c2.85-6.01,5.79-11.97,8.83-17.89c0.91,0.65,2.73,1.99,3.64,2.66
		c-1.66,10.36-3.96,20.74-3.13,31.32c0.12,9.79,3.04,19.17,5.45,28.56c-10.39-8.38-15.18-21.72-17.27-34.51
		C87.3,137.23,89.23,133.89,90.66,130.72"/>
</g>
</svg>
