<?xml version="1.0" encoding="utf-8"?>
<!-- Generator: Adobe Illustrator 24.2.0, SVG Export Plug-In . SVG Version: 6.00 Build 0)  -->
<svg version="1.1" id="Layer_1" xmlns="http://www.w3.org/2000/svg" xmlns:xlink="http://www.w3.org/1999/xlink" x="0px" y="0px"
	 viewBox="0 0 644.94 202.21" style="enable-background:new 0 0 644.94 202.21;" xml:space="preserve">
<style type="text/css">
	.st0{fill:#3359A8;}
	.st1{fill:#3CA492;}
</style>
<g>
	<path class="st0" d="M45.98,5.92c13,16.57,34.78,22.18,49.53,36.68c-6.71-3.44-13.29-7.21-20.58-9.33
		c-7.8-2.12-14.3-7.14-20.53-12.08C49.71,17.42,46.5,11.96,45.98,5.92"/>
	<path class="st0" d="M101.27,9.11c9.24-3.86,20.45,4.53,18.98,14.53C119.81,34.08,106.19,40.2,98,33.79
		C88.91,27.96,90.91,12.38,101.27,9.11"/>
	<path class="st0" d="M34.91,11.21c15.34,13.43,36.28,16.74,54.05,25.79c9.41,4.82,18.56,12.02,21.91,22.43
		c3.4,10.34-0.06,21.19-3.65,30.98c5.46,3.23,11.54,5.98,18.06,4.97c-0.31-6.19-5.36-10.06-9.27-14.15
		c4.35,3.47,9.47,6.99,11.02,12.63c0.79,2.52-1.31,4.99-3.8,5.24c-5.67,0.46-10.86-2.48-15.55-5.28
		c-10.39-6.66-19.73-15.31-26.2-25.89c3.64,3.19,6.81,6.85,10.19,10.31c2.4-8.44,3.87-18.44-1.91-25.89
		c-6.88-8.75-17.37-13.52-26.84-18.87C52.21,28.36,38.06,24.37,34.91,11.21"/>
	<path class="st1" d="M118.13,41.12c14.56,3.87,26.72,14.54,34.2,27.4c9.97,17.17,11.14,39.05,3.25,57.23
		c-7.61,17.88-24.04,32.08-43.25,35.82c12.46-6.88,24.24-15.82,31.37-28.44c11.96-19.6,12.11-45.53,0.56-65.34
		C138.24,56.58,128.39,48.28,118.13,41.12"/>
	<path class="st1" d="M31.64,70.08c6.66-12.37,17.79-22.3,30.95-27.3c-5.25,5.24-11.32,9.69-15.83,15.65
		c-13.71,16.9-18.53,40.65-11.91,61.45c4.09,14.14,13.49,25.96,24.33,35.62c-12.67-5.68-23.1-15.98-28.98-28.56
		C21.61,109.2,22.23,87.38,31.64,70.08"/>
	<path class="st0" d="M65.06,66.4c4.64-2.14,9.45,0.88,13.69,2.66c-3.61-0.33-7.97-2.74-11.13-0.03c-1.57,2.97,0.07,6.5,1.29,9.3
		c3.81,7.24,9.53,13.32,15.67,18.65c2.28-5.12,4.29-10.36,6.13-15.67c4.54,4.63,9.32,9.04,14.67,12.73
		c-2,5.77-4.72,11.26-7.42,16.75c-12.63-8.25-25.16-17.77-33.06-30.89C62.72,75.94,60.57,69.54,65.06,66.4"/>
	<path class="st0" d="M106.58,99.28c-0.53,4.08-1.5,8.09-2.08,12.17c4.87,4.47,11.47,6.48,17.14,9.81
		c-7.66-2.03-14.91-5.39-21.65-9.5C102.38,107.69,104.54,103.52,106.58,99.28"/>
	<path class="st0" d="M82.1,102.01c4.91,3.58,10.3,6.48,15.02,10.31c-6.13,14.76-13.9,29.08-16.66,45c-2.72,12.97-1.85,26.29,0,39.3
		c-9.38-8.5-12.79-21.63-14.18-33.78C63.7,141.31,73.19,120.98,82.1,102.01"/>
	<path class="st0" d="M90.66,130.72c2.85-6.01,5.79-11.97,8.83-17.89c0.91,0.65,2.73,1.99,3.64,2.66
		c-1.66,10.36-3.96,20.74-3.13,31.32c0.12,9.79,3.04,19.17,5.45,28.56c-10.39-8.38-15.18-21.72-17.27-34.51
		C87.3,137.23,89.23,133.89,90.66,130.72"/>
</g>
<g>
	<path class="st0" d="M562.34,40.55c0.18-1.08,0.14-2.18-0.13-3.22c-0.58-2.23-2.21-4.11-4.33-5c-2.79-1.17-5.7-0.54-8.18,0.84
		c0,0-1.45,0.81-3.07,1.72c-0.15-0.26-1.64-2.85-2.13-3.68c-1.42-2.4-2.97-4.52-5.79-5.34c-1.12-0.32-2.29-0.42-3.43-0.27
		c-1.14,0.15-2.24,0.54-3.19,1.13c-1.93,1.17-3.29,3.19-3.64,5.35c-0.18,1.08-0.14,2.18,0.13,3.22c0.58,2.23,2.21,4.11,4.33,5
		c2.79,1.17,5.7,0.54,8.18-0.84c0,0,1.45-0.81,3.07-1.72c0.15,0.26,1.64,2.85,2.13,3.68c1.42,2.4,2.97,4.52,5.79,5.34
		c1.12,0.32,2.29,0.42,3.43,0.27c1.14-0.15,2.24-0.54,3.19-1.13C560.63,44.73,561.99,42.71,562.34,40.55 M540.69,38.74
		c-1.68,0.95-3.35,1.74-5.44,1.32c-3.41-0.69-5.75-4.09-4.76-7.51c0.45-1.54,1.51-2.85,2.89-3.53c1.84-0.92,4.06-0.7,5.6,0.66
		c1.41,1.24,2.45,3.17,3.35,4.76c0.41,0.72,0.99,1.75,1.44,2.56C542.09,37.94,540.71,38.73,540.69,38.74 M557.42,43.64
		c-1.84,0.92-4.06,0.7-5.6-0.66c-1.41-1.24-2.45-3.17-3.35-4.76c-0.41-0.72-0.99-1.75-1.44-2.56c1.68-0.95,3.06-1.73,3.08-1.75
		c1.68-0.95,3.35-1.74,5.44-1.32c3.41,0.69,5.75,4.09,4.76,7.51C559.86,41.65,558.8,42.96,557.42,43.64"/>
	<g>
		<path class="st1" d="M235.51,158.37c0.05,0,0.1-0.03,0.1-0.11v-0.34c0-2.43,0-2.88-0.03-3.39c-0.03-0.54-0.16-0.8-0.69-0.91
			c-0.13-0.03-0.4-0.05-0.62-0.05c-0.18,0-0.27-0.03-0.27-0.14c0-0.11,0.11-0.14,0.34-0.14c0.86,0,1.87,0.05,2.3,0.05
			c0.38,0,1.39-0.05,2.02-0.05c0.22,0,0.34,0.03,0.34,0.14c0,0.11-0.1,0.14-0.29,0.14c-0.13,0-0.27,0.02-0.46,0.05
			c-0.43,0.08-0.56,0.35-0.59,0.91c-0.03,0.51-0.03,0.96-0.03,3.39v2.82c0,1.47,0,2.74,0.08,3.42c0.05,0.45,0.14,0.8,0.62,0.86
			c0.22,0.03,0.58,0.06,0.82,0.06c0.18,0,0.26,0.05,0.26,0.13c0,0.11-0.13,0.16-0.32,0.16c-1.04,0-2.05-0.05-2.5-0.05
			c-0.37,0-1.38,0.05-2,0.05c-0.22,0-0.34-0.05-0.34-0.16c0-0.08,0.06-0.13,0.26-0.13c0.24,0,0.43-0.03,0.58-0.06
			c0.32-0.06,0.4-0.42,0.46-0.88c0.08-0.67,0.08-1.94,0.08-3.41v-1.41c0-0.06-0.05-0.1-0.1-0.1h-6.11c-0.05,0-0.1,0.02-0.1,0.1v1.41
			c0,1.47,0,2.74,0.08,3.42c0.05,0.45,0.14,0.8,0.62,0.86c0.22,0.03,0.58,0.06,0.82,0.06c0.18,0,0.26,0.05,0.26,0.13
			c0,0.11-0.13,0.16-0.32,0.16c-1.04,0-2.05-0.05-2.5-0.05c-0.37,0-1.38,0.05-2.02,0.05c-0.21,0-0.32-0.05-0.32-0.16
			c0-0.08,0.06-0.13,0.26-0.13c0.24,0,0.43-0.03,0.58-0.06c0.32-0.06,0.4-0.42,0.46-0.88c0.08-0.67,0.08-1.94,0.08-3.41v-2.82
			c0-2.43,0-2.88-0.03-3.39c-0.03-0.54-0.16-0.8-0.69-0.91c-0.13-0.03-0.4-0.05-0.62-0.05c-0.18,0-0.27-0.03-0.27-0.14
			c0-0.11,0.11-0.14,0.34-0.14c0.86,0,1.87,0.05,2.3,0.05c0.38,0,1.39-0.05,2.02-0.05c0.22,0,0.34,0.03,0.34,0.14
			c0,0.11-0.1,0.14-0.29,0.14c-0.13,0-0.27,0.02-0.46,0.05c-0.43,0.08-0.56,0.35-0.59,0.91c-0.03,0.51-0.03,0.96-0.03,3.39v0.34
			c0,0.08,0.05,0.11,0.1,0.11H235.51z"/>
		<path class="st1" d="M246.05,157.93c0-2.43,0-2.88-0.03-3.39c-0.03-0.54-0.16-0.8-0.69-0.91c-0.13-0.03-0.4-0.05-0.62-0.05
			c-0.18,0-0.27-0.03-0.27-0.14c0-0.11,0.11-0.14,0.35-0.14c0.43,0,0.9,0.02,1.3,0.02c0.42,0.02,0.78,0.03,1.01,0.03
			c0.51,0,3.7,0,4-0.02c0.3-0.03,0.56-0.06,0.69-0.1c0.08-0.02,0.18-0.06,0.26-0.06c0.08,0,0.1,0.06,0.1,0.14
			c0,0.11-0.08,0.3-0.13,1.04c-0.02,0.16-0.05,0.86-0.08,1.06c-0.02,0.08-0.05,0.18-0.16,0.18c-0.11,0-0.14-0.08-0.14-0.22
			c0-0.11-0.02-0.38-0.1-0.58c-0.11-0.29-0.27-0.48-1.07-0.58c-0.27-0.03-1.95-0.06-2.27-0.06c-0.08,0-0.11,0.05-0.11,0.16v4.05
			c0,0.11,0.02,0.18,0.11,0.18c0.35,0,2.19,0,2.56-0.03c0.38-0.03,0.62-0.08,0.77-0.24c0.11-0.13,0.18-0.21,0.26-0.21
			c0.06,0,0.11,0.03,0.11,0.13c0,0.1-0.06,0.35-0.13,1.17c-0.02,0.32-0.06,0.96-0.06,1.07c0,0.13,0,0.3-0.14,0.3
			c-0.11,0-0.14-0.06-0.14-0.14c-0.02-0.16-0.02-0.37-0.06-0.58c-0.08-0.32-0.3-0.56-0.9-0.62c-0.3-0.03-1.89-0.05-2.27-0.05
			c-0.08,0-0.1,0.06-0.1,0.16v1.26c0,0.54-0.02,2.02,0,2.48c0.03,1.1,0.29,1.34,1.92,1.34c0.42,0,1.09,0,1.5-0.19
			c0.42-0.19,0.61-0.53,0.72-1.18c0.03-0.18,0.06-0.24,0.18-0.24c0.13,0,0.13,0.13,0.13,0.29c0,0.37-0.13,1.46-0.21,1.78
			c-0.11,0.42-0.26,0.42-0.86,0.42c-1.2,0-2.08-0.03-2.77-0.05c-0.69-0.03-1.18-0.05-1.66-0.05c-0.18,0-0.53,0-0.91,0.02
			c-0.37,0-0.78,0.03-1.1,0.03c-0.21,0-0.32-0.05-0.32-0.16c0-0.08,0.06-0.13,0.26-0.13c0.24,0,0.43-0.03,0.58-0.06
			c0.32-0.06,0.4-0.42,0.46-0.88c0.08-0.67,0.08-1.94,0.08-3.41V157.93z"/>
		<path class="st1" d="M260.01,161.21c-0.08,0-0.11,0.03-0.14,0.13l-0.86,2.29c-0.16,0.4-0.24,0.78-0.24,0.98
			c0,0.29,0.14,0.5,0.64,0.5h0.24c0.19,0,0.24,0.03,0.24,0.13c0,0.13-0.1,0.16-0.27,0.16c-0.51,0-1.2-0.05-1.7-0.05
			c-0.18,0-1.06,0.05-1.89,0.05c-0.21,0-0.3-0.03-0.3-0.16c0-0.1,0.06-0.13,0.19-0.13c0.14,0,0.37-0.02,0.5-0.03
			c0.74-0.1,1.04-0.64,1.36-1.44l4.02-10.05c0.19-0.46,0.29-0.64,0.45-0.64c0.14,0,0.24,0.14,0.4,0.51
			c0.38,0.88,2.94,7.41,3.97,9.84c0.61,1.44,1.07,1.66,1.41,1.74c0.24,0.05,0.48,0.06,0.67,0.06c0.13,0,0.21,0.02,0.21,0.13
			c0,0.13-0.14,0.16-0.74,0.16c-0.58,0-1.74,0-3.02-0.03c-0.29-0.02-0.48-0.02-0.48-0.13c0-0.1,0.06-0.13,0.22-0.14
			c0.11-0.03,0.22-0.18,0.14-0.37l-1.28-3.39c-0.03-0.08-0.08-0.11-0.16-0.11H260.01z M263.27,160.41c0.08,0,0.1-0.05,0.08-0.1
			l-1.44-3.95c-0.02-0.06-0.03-0.14-0.08-0.14c-0.05,0-0.08,0.08-0.1,0.14l-1.47,3.94c-0.02,0.06,0,0.11,0.06,0.11H263.27z"/>
		<path class="st1" d="M275.77,160.74c0,2.05,0,3.15,0.34,3.44c0.27,0.24,0.69,0.35,1.94,0.35c0.85,0,1.47-0.02,1.87-0.45
			c0.19-0.21,0.38-0.66,0.42-0.96c0.02-0.14,0.05-0.24,0.18-0.24c0.11,0,0.13,0.08,0.13,0.27c0,0.18-0.11,1.38-0.24,1.84
			c-0.1,0.35-0.18,0.43-1.01,0.43c-1.15,0-1.98-0.03-2.7-0.05c-0.72-0.03-1.3-0.05-1.95-0.05c-0.18,0-0.53,0-0.91,0.02
			c-0.37,0-0.78,0.03-1.1,0.03c-0.21,0-0.32-0.05-0.32-0.16c0-0.08,0.06-0.13,0.26-0.13c0.24,0,0.43-0.03,0.58-0.06
			c0.32-0.06,0.4-0.42,0.46-0.88c0.08-0.67,0.08-1.94,0.08-3.41v-2.82c0-2.43,0-2.88-0.03-3.39c-0.03-0.54-0.16-0.8-0.69-0.91
			c-0.13-0.03-0.32-0.05-0.53-0.05c-0.18,0-0.27-0.03-0.27-0.14c0-0.11,0.11-0.14,0.35-0.14c0.75,0,1.76,0.05,2.19,0.05
			c0.38,0,1.55-0.05,2.18-0.05c0.22,0,0.34,0.03,0.34,0.14c0,0.11-0.1,0.14-0.29,0.14c-0.18,0-0.43,0.02-0.62,0.05
			c-0.43,0.08-0.56,0.35-0.59,0.91c-0.03,0.51-0.03,0.96-0.03,3.39V160.74z"/>
		<path class="st1" d="M288.01,154.18l-2.38,0.06c-0.93,0.03-1.31,0.11-1.55,0.46c-0.16,0.24-0.24,0.43-0.27,0.56
			c-0.03,0.13-0.08,0.19-0.18,0.19c-0.11,0-0.14-0.08-0.14-0.26c0-0.26,0.3-1.71,0.34-1.84c0.05-0.21,0.1-0.3,0.19-0.3
			c0.13,0,0.29,0.16,0.69,0.19c0.46,0.05,1.07,0.08,1.6,0.08h6.34c0.51,0,0.86-0.05,1.1-0.08c0.24-0.05,0.37-0.08,0.43-0.08
			c0.11,0,0.13,0.1,0.13,0.34c0,0.34-0.05,1.44-0.05,1.86c-0.02,0.16-0.05,0.26-0.14,0.26c-0.13,0-0.16-0.08-0.18-0.32l-0.02-0.18
			c-0.03-0.42-0.46-0.86-1.89-0.9l-2.02-0.05v6.56c0,1.47,0,2.74,0.08,3.42c0.05,0.45,0.14,0.8,0.62,0.86
			c0.22,0.03,0.58,0.06,0.82,0.06c0.18,0,0.26,0.05,0.26,0.13c0,0.11-0.13,0.16-0.3,0.16c-1.06,0-2.06-0.05-2.51-0.05
			c-0.37,0-1.38,0.05-2.02,0.05c-0.21,0-0.32-0.05-0.32-0.16c0-0.08,0.06-0.13,0.26-0.13c0.24,0,0.43-0.03,0.58-0.06
			c0.32-0.06,0.42-0.42,0.46-0.88c0.08-0.67,0.08-1.94,0.08-3.41V154.18z"/>
		<path class="st1" d="M308.65,158.37c0.05,0,0.1-0.03,0.1-0.11v-0.34c0-2.43,0-2.88-0.03-3.39c-0.03-0.54-0.16-0.8-0.69-0.91
			c-0.13-0.03-0.4-0.05-0.62-0.05c-0.18,0-0.27-0.03-0.27-0.14c0-0.11,0.11-0.14,0.34-0.14c0.86,0,1.87,0.05,2.3,0.05
			c0.38,0,1.39-0.05,2.02-0.05c0.22,0,0.34,0.03,0.34,0.14c0,0.11-0.1,0.14-0.29,0.14c-0.13,0-0.27,0.02-0.46,0.05
			c-0.43,0.08-0.56,0.35-0.59,0.91c-0.03,0.51-0.03,0.96-0.03,3.39v2.82c0,1.47,0,2.74,0.08,3.42c0.05,0.45,0.14,0.8,0.62,0.86
			c0.22,0.03,0.58,0.06,0.82,0.06c0.18,0,0.26,0.05,0.26,0.13c0,0.11-0.13,0.16-0.32,0.16c-1.04,0-2.05-0.05-2.5-0.05
			c-0.37,0-1.38,0.05-2,0.05c-0.22,0-0.34-0.05-0.34-0.16c0-0.08,0.06-0.13,0.26-0.13c0.24,0,0.43-0.03,0.58-0.06
			c0.32-0.06,0.4-0.42,0.46-0.88c0.08-0.67,0.08-1.94,0.08-3.41v-1.41c0-0.06-0.05-0.1-0.1-0.1h-6.11c-0.05,0-0.1,0.02-0.1,0.1v1.41
			c0,1.47,0,2.74,0.08,3.42c0.05,0.45,0.14,0.8,0.62,0.86c0.22,0.03,0.58,0.06,0.82,0.06c0.18,0,0.26,0.05,0.26,0.13
			c0,0.11-0.13,0.16-0.32,0.16c-1.04,0-2.05-0.05-2.5-0.05c-0.37,0-1.38,0.05-2.02,0.05c-0.21,0-0.32-0.05-0.32-0.16
			c0-0.08,0.06-0.13,0.26-0.13c0.24,0,0.43-0.03,0.58-0.06c0.32-0.06,0.4-0.42,0.46-0.88c0.08-0.67,0.08-1.94,0.08-3.41v-2.82
			c0-2.43,0-2.88-0.03-3.39c-0.03-0.54-0.16-0.8-0.69-0.91c-0.13-0.03-0.4-0.05-0.62-0.05c-0.18,0-0.27-0.03-0.27-0.14
			c0-0.11,0.11-0.14,0.34-0.14c0.86,0,1.87,0.05,2.3,0.05c0.38,0,1.39-0.05,2.02-0.05c0.22,0,0.34,0.03,0.34,0.14
			c0,0.11-0.1,0.14-0.29,0.14c-0.13,0-0.27,0.02-0.46,0.05c-0.43,0.08-0.56,0.35-0.59,0.91c-0.03,0.51-0.03,0.96-0.03,3.39v0.34
			c0,0.08,0.05,0.11,0.1,0.11H308.65z"/>
		<path class="st1" d="M319.27,163.86c-1.57-1.38-1.98-3.17-1.98-4.72c0-1.09,0.34-2.98,1.87-4.38c1.15-1.06,2.67-1.7,5.06-1.7
			c0.99,0,1.58,0.06,2.32,0.16c0.61,0.08,1.12,0.22,1.6,0.27c0.18,0.02,0.24,0.1,0.24,0.19c0,0.13-0.05,0.32-0.08,0.88
			c-0.03,0.53-0.02,1.41-0.05,1.73c-0.02,0.24-0.05,0.37-0.19,0.37c-0.13,0-0.16-0.13-0.16-0.35c-0.02-0.5-0.22-1.06-0.62-1.47
			c-0.53-0.56-1.78-0.99-3.25-0.99c-1.39,0-2.3,0.35-3.01,0.99c-1.17,1.07-1.47,2.59-1.47,4.14c0,3.81,2.9,5.7,5.04,5.7
			c1.42,0,2.29-0.16,2.93-0.9c0.27-0.3,0.48-0.77,0.54-1.06c0.05-0.26,0.08-0.32,0.21-0.32c0.11,0,0.14,0.11,0.14,0.24
			c0,0.19-0.19,1.58-0.35,2.13c-0.08,0.27-0.14,0.35-0.42,0.46c-0.64,0.26-1.86,0.37-2.88,0.37
			C322.57,165.61,320.73,165.13,319.27,163.86"/>
		<path class="st1" d="M336.15,161.21c-0.08,0-0.11,0.03-0.14,0.13l-0.86,2.29c-0.16,0.4-0.24,0.78-0.24,0.98
			c0,0.29,0.14,0.5,0.64,0.5h0.24c0.19,0,0.24,0.03,0.24,0.13c0,0.13-0.1,0.16-0.27,0.16c-0.51,0-1.2-0.05-1.7-0.05
			c-0.18,0-1.06,0.05-1.89,0.05c-0.21,0-0.3-0.03-0.3-0.16c0-0.1,0.06-0.13,0.19-0.13c0.14,0,0.37-0.02,0.5-0.03
			c0.74-0.1,1.04-0.64,1.36-1.44l4.02-10.05c0.19-0.46,0.29-0.64,0.45-0.64c0.14,0,0.24,0.14,0.4,0.51
			c0.38,0.88,2.94,7.41,3.97,9.84c0.61,1.44,1.07,1.66,1.41,1.74c0.24,0.05,0.48,0.06,0.67,0.06c0.13,0,0.21,0.02,0.21,0.13
			c0,0.13-0.14,0.16-0.74,0.16c-0.58,0-1.74,0-3.02-0.03c-0.29-0.02-0.48-0.02-0.48-0.13c0-0.1,0.06-0.13,0.22-0.14
			c0.11-0.03,0.22-0.18,0.14-0.37l-1.28-3.39c-0.03-0.08-0.08-0.11-0.16-0.11H336.15z M339.41,160.41c0.08,0,0.1-0.05,0.08-0.1
			l-1.44-3.95c-0.02-0.06-0.03-0.14-0.08-0.14c-0.05,0-0.08,0.08-0.1,0.14l-1.47,3.94c-0.02,0.06,0,0.11,0.06,0.11H339.41z"/>
		<path class="st1" d="M349.91,157.93c0-2.43,0-2.88-0.03-3.39c-0.03-0.54-0.16-0.8-0.69-0.91c-0.13-0.03-0.4-0.05-0.62-0.05
			c-0.18,0-0.27-0.03-0.27-0.14c0-0.11,0.11-0.14,0.35-0.14c0.85,0,1.86,0.05,2.19,0.05c0.54,0,1.76-0.05,2.26-0.05
			c1.01,0,2.08,0.1,2.94,0.69c0.45,0.3,1.09,1.12,1.09,2.19c0,1.18-0.5,2.27-2.11,3.58c1.42,1.79,2.53,3.22,3.47,4.21
			c0.9,0.93,1.55,1.04,1.79,1.09c0.18,0.03,0.32,0.05,0.45,0.05c0.13,0,0.19,0.05,0.19,0.13c0,0.13-0.11,0.16-0.3,0.16h-1.52
			c-0.9,0-1.3-0.08-1.71-0.3c-0.69-0.37-1.3-1.12-2.19-2.35c-0.64-0.88-1.38-1.97-1.58-2.21c-0.08-0.1-0.18-0.11-0.29-0.11
			l-1.39-0.03c-0.08,0-0.13,0.03-0.13,0.13v0.22c0,1.49,0,2.75,0.08,3.42c0.05,0.46,0.14,0.82,0.62,0.88
			c0.24,0.03,0.59,0.06,0.78,0.06c0.13,0,0.19,0.05,0.19,0.13c0,0.11-0.11,0.16-0.32,0.16c-0.93,0-2.11-0.05-2.35-0.05
			c-0.3,0-1.31,0.05-1.95,0.05c-0.21,0-0.32-0.05-0.32-0.16c0-0.08,0.06-0.13,0.26-0.13c0.24,0,0.43-0.03,0.58-0.06
			c0.32-0.06,0.4-0.42,0.46-0.88c0.08-0.67,0.08-1.94,0.08-3.41V157.93z M351.8,159.19c0,0.18,0.03,0.24,0.14,0.29
			c0.34,0.11,0.82,0.16,1.22,0.16c0.64,0,0.85-0.06,1.14-0.27c0.48-0.35,0.94-1.09,0.94-2.4c0-2.27-1.5-2.93-2.45-2.93
			c-0.4,0-0.69,0.02-0.85,0.06c-0.11,0.03-0.14,0.1-0.14,0.22V159.19z"/>
		<path class="st1" d="M365.19,157.93c0-2.43,0-2.88-0.03-3.39c-0.03-0.54-0.16-0.8-0.69-0.91c-0.13-0.03-0.4-0.05-0.62-0.05
			c-0.18,0-0.27-0.03-0.27-0.14c0-0.11,0.11-0.14,0.35-0.14c0.43,0,0.9,0.02,1.3,0.02c0.42,0.02,0.78,0.03,1.01,0.03
			c0.51,0,3.7,0,4-0.02c0.3-0.03,0.56-0.06,0.69-0.1c0.08-0.02,0.18-0.06,0.26-0.06c0.08,0,0.1,0.06,0.1,0.14
			c0,0.11-0.08,0.3-0.13,1.04c-0.02,0.16-0.05,0.86-0.08,1.06c-0.02,0.08-0.05,0.18-0.16,0.18c-0.11,0-0.14-0.08-0.14-0.22
			c0-0.11-0.02-0.38-0.1-0.58c-0.11-0.29-0.27-0.48-1.07-0.58c-0.27-0.03-1.95-0.06-2.27-0.06c-0.08,0-0.11,0.05-0.11,0.16v4.05
			c0,0.11,0.02,0.18,0.11,0.18c0.35,0,2.19,0,2.56-0.03c0.38-0.03,0.62-0.08,0.77-0.24c0.11-0.13,0.18-0.21,0.26-0.21
			c0.06,0,0.11,0.03,0.11,0.13c0,0.1-0.06,0.35-0.13,1.17c-0.02,0.32-0.06,0.96-0.06,1.07c0,0.13,0,0.3-0.14,0.3
			c-0.11,0-0.14-0.06-0.14-0.14c-0.02-0.16-0.02-0.37-0.06-0.58c-0.08-0.32-0.3-0.56-0.9-0.62c-0.3-0.03-1.89-0.05-2.27-0.05
			c-0.08,0-0.1,0.06-0.1,0.16v1.26c0,0.54-0.02,2.02,0,2.48c0.03,1.1,0.29,1.34,1.92,1.34c0.42,0,1.09,0,1.5-0.19
			c0.42-0.19,0.61-0.53,0.72-1.18c0.03-0.18,0.06-0.24,0.18-0.24c0.13,0,0.13,0.13,0.13,0.29c0,0.37-0.13,1.46-0.21,1.78
			c-0.11,0.42-0.26,0.42-0.86,0.42c-1.2,0-2.08-0.03-2.77-0.05c-0.69-0.03-1.18-0.05-1.66-0.05c-0.18,0-0.53,0-0.91,0.02
			c-0.37,0-0.78,0.03-1.1,0.03c-0.21,0-0.32-0.05-0.32-0.16c0-0.08,0.06-0.13,0.26-0.13c0.24,0,0.43-0.03,0.58-0.06
			c0.32-0.06,0.4-0.42,0.46-0.88c0.08-0.67,0.08-1.94,0.08-3.41V157.93z"/>
		<path class="st1" d="M386.5,157.93c0-2.43,0-2.88-0.03-3.39c-0.03-0.54-0.16-0.8-0.69-0.91c-0.13-0.03-0.4-0.05-0.62-0.05
			c-0.18,0-0.27-0.03-0.27-0.14c0-0.11,0.11-0.14,0.35-0.14c0.85,0,1.86,0.05,2.3,0.05c0.66,0,1.58-0.05,2.32-0.05
			c2,0,2.72,0.67,2.98,0.91c0.35,0.34,0.8,1.06,0.8,1.9c0,2.27-1.66,3.87-3.94,3.87c-0.08,0-0.26,0-0.34-0.02
			c-0.08-0.02-0.19-0.03-0.19-0.14c0-0.13,0.11-0.18,0.45-0.18c0.9,0,2.14-1.01,2.14-2.64c0-0.53-0.05-1.6-0.94-2.4
			c-0.58-0.53-1.23-0.62-1.6-0.62c-0.24,0-0.48,0.02-0.62,0.06c-0.08,0.03-0.13,0.13-0.13,0.3v6.4c0,1.47,0,2.74,0.08,3.42
			c0.05,0.45,0.14,0.8,0.62,0.86c0.22,0.03,0.58,0.06,0.82,0.06c0.18,0,0.26,0.05,0.26,0.13c0,0.11-0.13,0.16-0.3,0.16
			c-1.06,0-2.06-0.05-2.48-0.05c-0.37,0-1.38,0.05-2.02,0.05c-0.21,0-0.32-0.05-0.32-0.16c0-0.08,0.06-0.13,0.26-0.13
			c0.24,0,0.43-0.03,0.58-0.06c0.32-0.06,0.4-0.42,0.46-0.88c0.08-0.67,0.08-1.94,0.08-3.41V157.93z"/>
		<path class="st1" d="M400.18,157.93c0-2.43,0-2.88-0.03-3.39c-0.03-0.54-0.16-0.8-0.69-0.91c-0.13-0.03-0.4-0.05-0.62-0.05
			c-0.18,0-0.27-0.03-0.27-0.14c0-0.11,0.11-0.14,0.35-0.14c0.85,0,1.86,0.05,2.19,0.05c0.54,0,1.76-0.05,2.26-0.05
			c1.01,0,2.08,0.1,2.94,0.69c0.45,0.3,1.09,1.12,1.09,2.19c0,1.18-0.5,2.27-2.11,3.58c1.42,1.79,2.53,3.22,3.47,4.21
			c0.9,0.93,1.55,1.04,1.79,1.09c0.18,0.03,0.32,0.05,0.45,0.05c0.13,0,0.19,0.05,0.19,0.13c0,0.13-0.11,0.16-0.3,0.16h-1.52
			c-0.9,0-1.3-0.08-1.71-0.3c-0.69-0.37-1.3-1.12-2.19-2.35c-0.64-0.88-1.38-1.97-1.58-2.21c-0.08-0.1-0.18-0.11-0.29-0.11
			l-1.39-0.03c-0.08,0-0.13,0.03-0.13,0.13v0.22c0,1.49,0,2.75,0.08,3.42c0.05,0.46,0.14,0.82,0.62,0.88
			c0.24,0.03,0.59,0.06,0.78,0.06c0.13,0,0.19,0.05,0.19,0.13c0,0.11-0.11,0.16-0.32,0.16c-0.93,0-2.11-0.05-2.35-0.05
			c-0.3,0-1.31,0.05-1.95,0.05c-0.21,0-0.32-0.05-0.32-0.16c0-0.08,0.06-0.13,0.26-0.13c0.24,0,0.43-0.03,0.58-0.06
			c0.32-0.06,0.4-0.42,0.46-0.88c0.08-0.67,0.08-1.94,0.08-3.41V157.93z M402.07,159.19c0,0.18,0.03,0.24,0.14,0.29
			c0.34,0.11,0.82,0.16,1.22,0.16c0.64,0,0.85-0.06,1.14-0.27c0.48-0.35,0.94-1.09,0.94-2.4c0-2.27-1.5-2.93-2.45-2.93
			c-0.4,0-0.69,0.02-0.85,0.06c-0.11,0.03-0.14,0.1-0.14,0.22V159.19z"/>
		<path class="st1" d="M415.46,157.93c0-2.43,0-2.88-0.03-3.39c-0.03-0.54-0.19-0.82-0.54-0.9c-0.18-0.05-0.38-0.06-0.58-0.06
			c-0.16,0-0.26-0.03-0.26-0.16c0-0.1,0.13-0.13,0.38-0.13c0.61,0,1.62,0.05,2.08,0.05c0.4,0,1.34-0.05,1.95-0.05
			c0.21,0,0.34,0.03,0.34,0.13c0,0.13-0.1,0.16-0.26,0.16c-0.16,0-0.29,0.02-0.48,0.05c-0.43,0.08-0.56,0.35-0.59,0.91
			c-0.03,0.51-0.03,0.96-0.03,3.39v2.82c0,1.55,0,2.82,0.06,3.5c0.05,0.43,0.16,0.72,0.64,0.78c0.22,0.03,0.58,0.06,0.82,0.06
			c0.18,0,0.26,0.05,0.26,0.13c0,0.11-0.13,0.16-0.3,0.16c-1.06,0-2.06-0.05-2.5-0.05c-0.37,0-1.38,0.05-2.02,0.05
			c-0.21,0-0.32-0.05-0.32-0.16c0-0.08,0.06-0.13,0.26-0.13c0.24,0,0.43-0.03,0.58-0.06c0.32-0.06,0.42-0.34,0.46-0.8
			c0.08-0.67,0.08-1.94,0.08-3.49V157.93z"/>
		<path class="st1" d="M424.42,154.85c-0.37-0.88-0.64-1.06-1.22-1.22c-0.24-0.06-0.5-0.06-0.62-0.06c-0.14,0-0.19-0.05-0.19-0.14
			c0-0.13,0.18-0.14,0.42-0.14c0.85,0,1.76,0.05,2.32,0.05c0.4,0,1.17-0.05,1.97-0.05c0.19,0,0.37,0.03,0.37,0.14
			c0,0.11-0.1,0.14-0.24,0.14c-0.26,0-0.5,0.02-0.62,0.11c-0.11,0.08-0.16,0.19-0.16,0.34c0,0.21,0.14,0.66,0.37,1.23l2.75,7.26
			h0.06c0.69-1.76,2.77-6.91,3.15-7.97c0.08-0.21,0.14-0.45,0.14-0.59c0-0.13-0.06-0.26-0.21-0.3c-0.19-0.06-0.43-0.08-0.64-0.08
			c-0.14,0-0.27-0.02-0.27-0.13c0-0.13,0.14-0.16,0.45-0.16c0.8,0,1.47,0.05,1.68,0.05c0.27,0,1.02-0.05,1.5-0.05
			c0.21,0,0.34,0.03,0.34,0.14c0,0.11-0.1,0.14-0.26,0.14c-0.16,0-0.5,0-0.78,0.19c-0.21,0.14-0.45,0.42-0.88,1.44
			c-0.62,1.5-1.06,2.37-1.92,4.34c-1.02,2.34-1.78,4.08-2.13,4.88c-0.42,0.93-0.51,1.18-0.74,1.18c-0.21,0-0.3-0.22-0.61-0.98
			L424.42,154.85z"/>
		<path class="st1" d="M440.44,161.21c-0.08,0-0.11,0.03-0.14,0.13l-0.86,2.29c-0.16,0.4-0.24,0.78-0.24,0.98
			c0,0.29,0.14,0.5,0.64,0.5h0.24c0.19,0,0.24,0.03,0.24,0.13c0,0.13-0.1,0.16-0.27,0.16c-0.51,0-1.2-0.05-1.7-0.05
			c-0.18,0-1.06,0.05-1.89,0.05c-0.21,0-0.3-0.03-0.3-0.16c0-0.1,0.06-0.13,0.19-0.13c0.14,0,0.37-0.02,0.5-0.03
			c0.74-0.1,1.04-0.64,1.36-1.44l4.02-10.05c0.19-0.46,0.29-0.64,0.45-0.64c0.14,0,0.24,0.14,0.4,0.51
			c0.38,0.88,2.94,7.41,3.97,9.84c0.61,1.44,1.07,1.66,1.41,1.74c0.24,0.05,0.48,0.06,0.67,0.06c0.13,0,0.21,0.02,0.21,0.13
			c0,0.13-0.14,0.16-0.74,0.16c-0.58,0-1.74,0-3.02-0.03c-0.29-0.02-0.48-0.02-0.48-0.13c0-0.1,0.06-0.13,0.22-0.14
			c0.11-0.03,0.22-0.18,0.14-0.37l-1.28-3.39c-0.03-0.08-0.08-0.11-0.16-0.11H440.44z M443.7,160.41c0.08,0,0.1-0.05,0.08-0.1
			l-1.44-3.95c-0.02-0.06-0.03-0.14-0.08-0.14c-0.05,0-0.08,0.08-0.1,0.14l-1.47,3.94c-0.02,0.06,0,0.11,0.06,0.11H443.7z"/>
		<path class="st1" d="M455.29,154.18l-2.38,0.06c-0.93,0.03-1.31,0.11-1.55,0.46c-0.16,0.24-0.24,0.43-0.27,0.56
			c-0.03,0.13-0.08,0.19-0.18,0.19c-0.11,0-0.14-0.08-0.14-0.26c0-0.26,0.3-1.71,0.34-1.84c0.05-0.21,0.1-0.3,0.19-0.3
			c0.13,0,0.29,0.16,0.69,0.19c0.46,0.05,1.07,0.08,1.6,0.08h6.34c0.51,0,0.86-0.05,1.1-0.08c0.24-0.05,0.37-0.08,0.43-0.08
			c0.11,0,0.13,0.1,0.13,0.34c0,0.34-0.05,1.44-0.05,1.86c-0.02,0.16-0.05,0.26-0.14,0.26c-0.13,0-0.16-0.08-0.18-0.32l-0.02-0.18
			c-0.03-0.42-0.46-0.86-1.89-0.9l-2.02-0.05v6.56c0,1.47,0,2.74,0.08,3.42c0.05,0.45,0.14,0.8,0.62,0.86
			c0.22,0.03,0.58,0.06,0.82,0.06c0.18,0,0.26,0.05,0.26,0.13c0,0.11-0.13,0.16-0.3,0.16c-1.06,0-2.06-0.05-2.51-0.05
			c-0.37,0-1.38,0.05-2.02,0.05c-0.21,0-0.32-0.05-0.32-0.16c0-0.08,0.06-0.13,0.26-0.13c0.24,0,0.43-0.03,0.58-0.06
			c0.32-0.06,0.42-0.42,0.46-0.88c0.08-0.67,0.08-1.94,0.08-3.41V154.18z"/>
		<path class="st1" d="M467.72,157.93c0-2.43,0-2.88-0.03-3.39c-0.03-0.54-0.16-0.8-0.69-0.91c-0.13-0.03-0.4-0.05-0.62-0.05
			c-0.18,0-0.27-0.03-0.27-0.14c0-0.11,0.11-0.14,0.35-0.14c0.43,0,0.9,0.02,1.3,0.02c0.42,0.02,0.78,0.03,1.01,0.03
			c0.51,0,3.7,0,4-0.02c0.3-0.03,0.56-0.06,0.69-0.1c0.08-0.02,0.18-0.06,0.26-0.06c0.08,0,0.1,0.06,0.1,0.14
			c0,0.11-0.08,0.3-0.13,1.04c-0.02,0.16-0.05,0.86-0.08,1.06c-0.02,0.08-0.05,0.18-0.16,0.18c-0.11,0-0.14-0.08-0.14-0.22
			c0-0.11-0.02-0.38-0.1-0.58c-0.11-0.29-0.27-0.48-1.07-0.58c-0.27-0.03-1.95-0.06-2.27-0.06c-0.08,0-0.11,0.05-0.11,0.16v4.05
			c0,0.11,0.02,0.18,0.11,0.18c0.35,0,2.19,0,2.56-0.03c0.38-0.03,0.62-0.08,0.77-0.24c0.11-0.13,0.18-0.21,0.26-0.21
			c0.06,0,0.11,0.03,0.11,0.13c0,0.1-0.06,0.35-0.13,1.17c-0.02,0.32-0.06,0.96-0.06,1.07c0,0.13,0,0.3-0.14,0.3
			c-0.11,0-0.14-0.06-0.14-0.14c-0.02-0.16-0.02-0.37-0.06-0.58c-0.08-0.32-0.3-0.56-0.9-0.62c-0.3-0.03-1.89-0.05-2.27-0.05
			c-0.08,0-0.1,0.06-0.1,0.16v1.26c0,0.54-0.02,2.02,0,2.48c0.03,1.1,0.29,1.34,1.92,1.34c0.42,0,1.09,0,1.5-0.19
			c0.42-0.19,0.61-0.53,0.72-1.18c0.03-0.18,0.06-0.24,0.18-0.24c0.13,0,0.13,0.13,0.13,0.29c0,0.37-0.13,1.46-0.21,1.78
			c-0.11,0.42-0.26,0.42-0.86,0.42c-1.2,0-2.08-0.03-2.77-0.05c-0.69-0.03-1.18-0.05-1.66-0.05c-0.18,0-0.53,0-0.91,0.02
			c-0.37,0-0.78,0.03-1.1,0.03c-0.21,0-0.32-0.05-0.32-0.16c0-0.08,0.06-0.13,0.26-0.13c0.24,0,0.43-0.03,0.58-0.06
			c0.32-0.06,0.4-0.42,0.46-0.88c0.08-0.67,0.08-1.94,0.08-3.41V157.93z"/>
		<path class="st1" d="M491.03,160.74c0,2.05,0,3.15,0.34,3.44c0.27,0.24,0.69,0.35,1.94,0.35c0.85,0,1.47-0.02,1.87-0.45
			c0.19-0.21,0.38-0.66,0.42-0.96c0.02-0.14,0.05-0.24,0.18-0.24c0.11,0,0.13,0.08,0.13,0.27c0,0.18-0.11,1.38-0.24,1.84
			c-0.1,0.35-0.18,0.43-1.01,0.43c-1.15,0-1.98-0.03-2.7-0.05c-0.72-0.03-1.3-0.05-1.95-0.05c-0.18,0-0.53,0-0.91,0.02
			c-0.37,0-0.78,0.03-1.1,0.03c-0.21,0-0.32-0.05-0.32-0.16c0-0.08,0.06-0.13,0.26-0.13c0.24,0,0.43-0.03,0.58-0.06
			c0.32-0.06,0.4-0.42,0.46-0.88c0.08-0.67,0.08-1.94,0.08-3.41v-2.82c0-2.43,0-2.88-0.03-3.39c-0.03-0.54-0.16-0.8-0.69-0.91
			c-0.13-0.03-0.32-0.05-0.53-0.05c-0.18,0-0.27-0.03-0.27-0.14c0-0.11,0.11-0.14,0.35-0.14c0.75,0,1.76,0.05,2.19,0.05
			c0.38,0,1.55-0.05,2.18-0.05c0.22,0,0.34,0.03,0.34,0.14c0,0.11-0.1,0.14-0.29,0.14c-0.18,0-0.43,0.02-0.62,0.05
			c-0.43,0.08-0.56,0.35-0.59,0.91c-0.03,0.51-0.03,0.96-0.03,3.39V160.74z"/>
		<path class="st1" d="M501.91,157.93c0-2.43,0-2.88-0.03-3.39c-0.03-0.54-0.19-0.82-0.54-0.9c-0.18-0.05-0.38-0.06-0.58-0.06
			c-0.16,0-0.26-0.03-0.26-0.16c0-0.1,0.13-0.13,0.38-0.13c0.61,0,1.62,0.05,2.08,0.05c0.4,0,1.34-0.05,1.95-0.05
			c0.21,0,0.34,0.03,0.34,0.13c0,0.13-0.1,0.16-0.26,0.16c-0.16,0-0.29,0.02-0.48,0.05c-0.43,0.08-0.56,0.35-0.59,0.91
			c-0.03,0.51-0.03,0.96-0.03,3.39v2.82c0,1.55,0,2.82,0.06,3.5c0.05,0.43,0.16,0.72,0.64,0.78c0.22,0.03,0.58,0.06,0.82,0.06
			c0.18,0,0.26,0.05,0.26,0.13c0,0.11-0.13,0.16-0.3,0.16c-1.06,0-2.06-0.05-2.5-0.05c-0.37,0-1.38,0.05-2.02,0.05
			c-0.21,0-0.32-0.05-0.32-0.16c0-0.08,0.06-0.13,0.26-0.13c0.24,0,0.43-0.03,0.58-0.06c0.32-0.06,0.42-0.34,0.46-0.8
			c0.08-0.67,0.08-1.94,0.08-3.49V157.93z"/>
		<path class="st1" d="M512.94,153.35c0.05-0.27,0.14-0.42,0.27-0.42c0.13,0,0.22,0.08,0.43,0.5l4.37,9.02l4.35-9.14
			c0.13-0.26,0.21-0.38,0.35-0.38c0.14,0,0.24,0.16,0.29,0.5l1.46,9.89c0.14,1.01,0.3,1.47,0.78,1.62c0.46,0.14,0.78,0.16,0.99,0.16
			c0.14,0,0.26,0.02,0.26,0.11c0,0.13-0.19,0.18-0.42,0.18c-0.4,0-2.61-0.05-3.25-0.1c-0.37-0.03-0.46-0.08-0.46-0.18
			c0-0.08,0.06-0.13,0.18-0.18c0.1-0.03,0.14-0.24,0.08-0.69l-0.96-7.04h-0.06l-3.49,7.26c-0.37,0.75-0.45,0.9-0.59,0.9
			c-0.14,0-0.3-0.32-0.56-0.8c-0.38-0.74-1.65-3.18-1.84-3.63c-0.14-0.34-1.1-2.35-1.66-3.55h-0.06l-0.83,6.37
			c-0.03,0.29-0.05,0.5-0.05,0.75c0,0.3,0.21,0.45,0.48,0.51c0.29,0.06,0.51,0.08,0.67,0.08c0.13,0,0.24,0.03,0.24,0.11
			c0,0.14-0.14,0.18-0.38,0.18c-0.67,0-1.39-0.05-1.68-0.05c-0.3,0-1.07,0.05-1.58,0.05c-0.16,0-0.29-0.03-0.29-0.18
			c0-0.08,0.1-0.11,0.26-0.11c0.13,0,0.24,0,0.48-0.05c0.45-0.1,0.58-0.72,0.66-1.26L512.94,153.35z"/>
		<path class="st1" d="M532.23,157.93c0-2.43,0-2.88-0.03-3.39c-0.03-0.54-0.19-0.82-0.54-0.9c-0.18-0.05-0.38-0.06-0.58-0.06
			c-0.16,0-0.26-0.03-0.26-0.16c0-0.1,0.13-0.13,0.38-0.13c0.61,0,1.62,0.05,2.08,0.05c0.4,0,1.34-0.05,1.95-0.05
			c0.21,0,0.34,0.03,0.34,0.13c0,0.13-0.1,0.16-0.26,0.16c-0.16,0-0.29,0.02-0.48,0.05c-0.43,0.08-0.56,0.35-0.59,0.91
			c-0.03,0.51-0.03,0.96-0.03,3.39v2.82c0,1.55,0,2.82,0.06,3.5c0.05,0.43,0.16,0.72,0.64,0.78c0.22,0.03,0.58,0.06,0.82,0.06
			c0.18,0,0.26,0.05,0.26,0.13c0,0.11-0.13,0.16-0.3,0.16c-1.06,0-2.06-0.05-2.5-0.05c-0.37,0-1.38,0.05-2.02,0.05
			c-0.21,0-0.32-0.05-0.32-0.16c0-0.08,0.06-0.13,0.26-0.13c0.24,0,0.43-0.03,0.58-0.06c0.32-0.06,0.42-0.34,0.46-0.8
			c0.08-0.67,0.08-1.94,0.08-3.49V157.93z"/>
		<path class="st1" d="M544.79,154.18l-2.38,0.06c-0.93,0.03-1.31,0.11-1.55,0.46c-0.16,0.24-0.24,0.43-0.27,0.56
			c-0.03,0.13-0.08,0.19-0.18,0.19c-0.11,0-0.14-0.08-0.14-0.26c0-0.26,0.3-1.71,0.34-1.84c0.05-0.21,0.1-0.3,0.19-0.3
			c0.13,0,0.29,0.16,0.69,0.19c0.46,0.05,1.07,0.08,1.6,0.08h6.34c0.51,0,0.86-0.05,1.1-0.08c0.24-0.05,0.37-0.08,0.43-0.08
			c0.11,0,0.13,0.1,0.13,0.34c0,0.34-0.05,1.44-0.05,1.86c-0.02,0.16-0.05,0.26-0.14,0.26c-0.13,0-0.16-0.08-0.18-0.32l-0.02-0.18
			c-0.03-0.42-0.46-0.86-1.89-0.9l-2.02-0.05v6.56c0,1.47,0,2.74,0.08,3.42c0.05,0.45,0.14,0.8,0.62,0.86
			c0.22,0.03,0.58,0.06,0.82,0.06c0.18,0,0.26,0.05,0.26,0.13c0,0.11-0.13,0.16-0.3,0.16c-1.06,0-2.06-0.05-2.51-0.05
			c-0.37,0-1.38,0.05-2.02,0.05c-0.21,0-0.32-0.05-0.32-0.16c0-0.08,0.06-0.13,0.26-0.13c0.24,0,0.43-0.03,0.58-0.06
			c0.32-0.06,0.42-0.42,0.46-0.88c0.08-0.67,0.08-1.94,0.08-3.41V154.18z"/>
		<path class="st1" d="M557.23,157.93c0-2.43,0-2.88-0.03-3.39c-0.03-0.54-0.16-0.8-0.69-0.91c-0.13-0.03-0.4-0.05-0.62-0.05
			c-0.18,0-0.27-0.03-0.27-0.14c0-0.11,0.11-0.14,0.35-0.14c0.43,0,0.9,0.02,1.3,0.02c0.42,0.02,0.78,0.03,1.01,0.03
			c0.51,0,3.7,0,4-0.02c0.3-0.03,0.56-0.06,0.69-0.1c0.08-0.02,0.18-0.06,0.26-0.06s0.1,0.06,0.1,0.14c0,0.11-0.08,0.3-0.13,1.04
			c-0.02,0.16-0.05,0.86-0.08,1.06c-0.02,0.08-0.05,0.18-0.16,0.18c-0.11,0-0.14-0.08-0.14-0.22c0-0.11-0.02-0.38-0.1-0.58
			c-0.11-0.29-0.27-0.48-1.07-0.58c-0.27-0.03-1.95-0.06-2.27-0.06c-0.08,0-0.11,0.05-0.11,0.16v4.05c0,0.11,0.02,0.18,0.11,0.18
			c0.35,0,2.19,0,2.56-0.03c0.38-0.03,0.62-0.08,0.77-0.24c0.11-0.13,0.18-0.21,0.26-0.21c0.06,0,0.11,0.03,0.11,0.13
			c0,0.1-0.06,0.35-0.13,1.17c-0.02,0.32-0.06,0.96-0.06,1.07c0,0.13,0,0.3-0.14,0.3c-0.11,0-0.14-0.06-0.14-0.14
			c-0.02-0.16-0.02-0.37-0.06-0.58c-0.08-0.32-0.3-0.56-0.9-0.62c-0.3-0.03-1.89-0.05-2.27-0.05c-0.08,0-0.1,0.06-0.1,0.16v1.26
			c0,0.54-0.02,2.02,0,2.48c0.03,1.1,0.29,1.34,1.92,1.34c0.42,0,1.09,0,1.5-0.19c0.42-0.19,0.61-0.53,0.72-1.18
			c0.03-0.18,0.06-0.24,0.18-0.24c0.13,0,0.13,0.13,0.13,0.29c0,0.37-0.13,1.46-0.21,1.78c-0.11,0.42-0.26,0.42-0.86,0.42
			c-1.2,0-2.08-0.03-2.77-0.05c-0.69-0.03-1.18-0.05-1.66-0.05c-0.18,0-0.53,0-0.91,0.02c-0.37,0-0.78,0.03-1.1,0.03
			c-0.21,0-0.32-0.05-0.32-0.16c0-0.08,0.06-0.13,0.26-0.13c0.24,0,0.43-0.03,0.58-0.06c0.32-0.06,0.4-0.42,0.46-0.88
			c0.08-0.67,0.08-1.94,0.08-3.41V157.93z"/>
		<path class="st1" d="M570.54,157.93c0-2.43,0-2.88-0.03-3.39c-0.03-0.54-0.16-0.8-0.69-0.91c-0.13-0.03-0.4-0.05-0.62-0.05
			c-0.18,0-0.27-0.03-0.27-0.14c0-0.11,0.11-0.14,0.35-0.14c0.85,0,1.86,0.05,2.3,0.05c0.5,0,1.5-0.05,2.46-0.05
			c2,0,4.67,0,6.42,1.82c0.8,0.83,1.55,2.16,1.55,4.06c0,2.02-0.85,3.55-1.74,4.46c-0.74,0.75-2.4,1.89-5.36,1.89
			c-0.58,0-1.23-0.05-1.84-0.1c-0.61-0.05-1.17-0.1-1.57-0.1c-0.18,0-0.53,0-0.91,0.02c-0.37,0-0.78,0.03-1.1,0.03
			c-0.21,0-0.32-0.05-0.32-0.16c0-0.08,0.06-0.13,0.26-0.13c0.24,0,0.43-0.03,0.58-0.06c0.32-0.06,0.4-0.42,0.46-0.88
			c0.08-0.67,0.08-1.94,0.08-3.41V157.93z M572.54,159.69c0,1.7,0.02,2.93,0.03,3.23c0.02,0.4,0.05,1.04,0.18,1.22
			c0.21,0.3,0.83,0.64,2.1,0.64c1.63,0,2.72-0.32,3.68-1.15c1.02-0.88,1.34-2.34,1.34-3.98c0-2.03-0.85-3.34-1.54-4
			c-1.47-1.41-3.3-1.6-4.54-1.6c-0.32,0-0.91,0.05-1.04,0.11c-0.14,0.06-0.19,0.14-0.19,0.32c-0.02,0.54-0.02,1.94-0.02,3.2V159.69z
			"/>
		<path class="st0" d="M418.38,59.82c8.46,8.46,12.69,18.62,12.69,30.47c0,11.89-4.23,22.05-12.69,30.49
			c-8.46,8.44-18.62,12.66-30.47,12.66h-17.3V47.13h17.3C399.76,47.13,409.92,51.36,418.38,59.82 M406.17,108.58
			c5.07-5.05,7.6-11.15,7.6-18.29c0-7.1-2.53-13.2-7.6-18.29c-5.07-5.09-11.16-7.63-18.26-7.63v51.78
			C395.01,116.15,401.1,113.63,406.17,108.58"/>
		<rect x="533.33" y="47.1" class="st0" width="17.3" height="86.32"/>
		<polygon class="st0" points="512.09,47.13 505.15,64.37 483.57,64.37 483.57,133.45 466.28,133.45 466.28,64.37 444.7,64.37 
			451.63,47.13 		"/>
		<polygon class="st0" points="595.58,47.1 595.58,116.12 630.06,116.12 630.06,133.42 578.28,133.42 578.28,47.1 		"/>
		<polygon class="st0" points="271.26,86.46 288.55,102.58 288.55,133.46 271.26,133.46 		"/>
		<polygon class="st0" points="340.34,110.2 340.34,133.46 288.56,86.22 288.56,86.3 271.26,70.3 271.26,47.12 312.64,84.83 		"/>
		<polygon class="st0" points="340.34,94.24 340.34,47.13 323.04,47.13 323.04,78.2 		"/>
		<polygon class="st0" points="210.48,88.15 219.38,66.81 212.35,51.15 210.53,47.13 208.66,51.2 171.66,133.45 175.3,133.45 
			186.44,133.45 187.18,133.45 190.01,133.45 203.76,103.25 203.73,103.25 		"/>
		<polygon class="st0" points="226.08,81.73 217.24,103.16 217.28,103.25 217.2,103.25 217.23,103.27 216.82,104.18 210.09,120.49 
			225.04,120.49 225.31,121.13 230.88,133.45 233.82,133.45 234.52,133.45 245.66,133.45 249.3,133.45 		"/>
	</g>
</g>
</svg>
